<svg xmlns="http://www.w3.org/2000/svg" viewBox="0 0 75.2 75.3">
  <path id="circle" fill="black" d="M46.2,57.7C45,59.4,42.6,62,37.4,62c-4.9,0-7.4-2.3-8.6-4c-1.7-2.5-1.7-5.5-1.7-8.3V26.3 c0-1.1,0.1-2.2,0.1-3.3c0.1-1.8,0.5-8,6.7-9.9c1.4-0.5,2.5-0.6,4-0.6c3.6,0,5.5,1.1,6.7,2.1c1,0.8,1.8,1.9,2.3,3c1,2.2,1,4.4,1,6.7 v4.2h-6.4V23c0-1,0.3-5-3.9-5c-1.4,0-2.1,0.4-2.6,0.8c-1.6,1.4-1.4,3.4-1.4,5.3v26.8c0,0.6,0,1.1,0.1,1.7c0.1,1.3,0.3,3.9,3.8,3.9 c0.4,0,1.5,0.1,2.5-0.7c1.7-1.2,1.6-3.2,1.6-5v-5.5H48v5.1C48,53,47.7,55.4,46.2,57.7 M0,37.7c0,20.8,16.9,37.6,37.6,37.6 c20.8,0,37.6-16.9,37.6-37.6S58.5,0,37.7,0S0,16.9,0,37.7"></path>
  <polyline id="lightning" fill="#0696D0" points="48.2,32.4 43.3,32.4 41.5,36.6 43.6,36.6 41.2,42.8 48.1,36.6 46.2,36.6 48.2,32.4 "></polyline>
</svg>
